<svg xmlns="http://www.w3.org/2000/svg" xmlns:xlink="http://www.w3.org/1999/xlink" width="500" zoomAndPan="magnify" viewBox="0 0 375 374.999991" height="500" preserveAspectRatio="xMidYMid meet" version="1.0"><defs><g/><clipPath id="14d1e9ce75"><path d="M 28.207031 28.207031 L 346.957031 28.207031 L 346.957031 346.957031 L 28.207031 346.957031 Z M 28.207031 28.207031 " clip-rule="nonzero"/></clipPath><clipPath id="dfa5f8c632"><path d="M 34.617188 34.617188 L 340.617188 34.617188 L 340.617188 340.617188 L 34.617188 340.617188 Z M 34.617188 34.617188 " clip-rule="nonzero"/></clipPath><clipPath id="73c0aacf52"><path d="M 44.707031 44.707031 L 330.457031 44.707031 L 330.457031 330.457031 L 44.707031 330.457031 Z M 44.707031 44.707031 " clip-rule="nonzero"/></clipPath><clipPath id="d9fd272faf"><path d="M 51.679688 51.679688 L 323.320312 51.679688 L 323.320312 323.320312 L 51.679688 323.320312 Z M 51.679688 51.679688 " clip-rule="nonzero"/></clipPath><clipPath id="2eabe3cb87"><path d="M 187.5 51.679688 C 112.488281 51.679688 51.679688 112.488281 51.679688 187.5 C 51.679688 262.511719 112.488281 323.320312 187.5 323.320312 C 262.511719 323.320312 323.320312 262.511719 323.320312 187.5 C 323.320312 112.488281 262.511719 51.679688 187.5 51.679688 Z M 187.5 51.679688 " clip-rule="nonzero"/></clipPath><clipPath id="2261e1af4e"><path d="M 51.679688 51.679688 L 323.179688 51.679688 L 323.179688 323.179688 L 51.679688 323.179688 Z M 51.679688 51.679688 " clip-rule="nonzero"/></clipPath><clipPath id="dcc6b1b3e3"><path d="M 187.496094 51.679688 C 112.488281 51.679688 51.679688 112.488281 51.679688 187.496094 C 51.679688 262.503906 112.488281 323.308594 187.496094 323.308594 C 262.503906 323.308594 323.308594 262.503906 323.308594 187.496094 C 323.308594 112.488281 262.503906 51.679688 187.496094 51.679688 Z M 187.496094 51.679688 " clip-rule="nonzero"/></clipPath><clipPath id="0a7e90627f"><path d="M 105.695312 105.695312 L 269.304688 105.695312 L 269.304688 269.304688 L 105.695312 269.304688 Z M 105.695312 105.695312 " clip-rule="nonzero"/></clipPath><clipPath id="40abcc25fe"><path d="M 187.5 105.695312 C 142.320312 105.695312 105.695312 142.320312 105.695312 187.5 C 105.695312 232.679688 142.320312 269.304688 187.5 269.304688 C 232.679688 269.304688 269.304688 232.679688 269.304688 187.5 C 269.304688 142.320312 232.679688 105.695312 187.5 105.695312 Z M 187.5 105.695312 " clip-rule="nonzero"/></clipPath><clipPath id="7a52c1c193"><path d="M 105.695312 105.695312 L 269.195312 105.695312 L 269.195312 269.195312 L 105.695312 269.195312 Z M 105.695312 105.695312 " clip-rule="nonzero"/></clipPath><clipPath id="5a9acb596d"><path d="M 187.5 105.695312 C 142.320312 105.695312 105.695312 142.320312 105.695312 187.5 C 105.695312 232.679688 142.320312 269.300781 187.5 269.300781 C 232.679688 269.300781 269.300781 232.679688 269.300781 187.5 C 269.300781 142.320312 232.679688 105.695312 187.5 105.695312 Z M 187.5 105.695312 " clip-rule="nonzero"/></clipPath><clipPath id="e95c1034fe"><path d="M 118.132812 118.132812 L 256.867188 118.132812 L 256.867188 256.867188 L 118.132812 256.867188 Z M 118.132812 118.132812 " clip-rule="nonzero"/></clipPath><clipPath id="bc8bfc4425"><path d="M 187.5 118.132812 C 149.191406 118.132812 118.132812 149.191406 118.132812 187.5 C 118.132812 225.808594 149.191406 256.867188 187.5 256.867188 C 225.808594 256.867188 256.867188 225.808594 256.867188 187.5 C 256.867188 149.191406 225.808594 118.132812 187.5 118.132812 Z M 187.5 118.132812 " clip-rule="nonzero"/></clipPath><clipPath id="10d6af851e"><path d="M 128.929688 115 L 245.929688 115 L 245.929688 261 L 128.929688 261 Z M 128.929688 115 " clip-rule="nonzero"/></clipPath><clipPath id="924984bac6"><path d="M 82.484375 108 L 116 108 L 116 139 L 82.484375 139 Z M 82.484375 108 " clip-rule="nonzero"/></clipPath><clipPath id="1f06f3bce2"><path d="M 82.484375 108 L 115.851562 108 L 115.851562 138.855469 L 82.484375 138.855469 Z M 82.484375 108 " clip-rule="nonzero"/></clipPath><clipPath id="7328294e29"><path d="M 87.691406 109.9375 L 91.589844 113.507812 L 90.839844 115.933594 L 88.195312 116.621094 L 84.296875 113.046875 L 82.53125 114.664062 L 87.015625 120.585938 L 92.296875 119.664062 L 110.84375 137.769531 C 113.6875 140.394531 117.515625 136.460938 114.859375 134.21875 L 95.042969 117.035156 L 96.25 112.132812 L 89.585938 108.195312 Z M 112.085938 135.316406 C 112.589844 134.851562 113.410156 134.851562 113.914062 135.316406 C 114.421875 135.777344 114.421875 136.527344 113.914062 136.992188 C 113.410156 137.453125 112.589844 137.453125 112.085938 136.992188 C 111.578125 136.527344 111.578125 135.777344 112.085938 135.316406 Z M 112.085938 135.316406 " clip-rule="nonzero"/></clipPath><clipPath id="d2f732c371"><path d="M 82.484375 108 L 116 108 L 116 139 L 82.484375 139 Z M 82.484375 108 " clip-rule="nonzero"/></clipPath><clipPath id="724b7b7fba"><path d="M 83 107.433594 L 118 107.433594 L 118 139 L 83 139 Z M 83 107.433594 " clip-rule="nonzero"/></clipPath><clipPath id="4e9da86d17"><path d="M 97 107.433594 L 118 107.433594 L 118 123 L 97 123 Z M 97 107.433594 " clip-rule="nonzero"/></clipPath><clipPath id="5904119a37"><path d="M 102 107.433594 L 116 107.433594 L 116 120 L 102 120 Z M 102 107.433594 " clip-rule="nonzero"/></clipPath><clipPath id="1d081c4aa0"><path d="M 83.050781 107.671875 L 117.960938 107.671875 L 117.960938 138.304688 L 83.050781 138.304688 Z M 83.050781 107.671875 " clip-rule="nonzero"/></clipPath><clipPath id="b2c2db8ca4"><path d="M 97.738281 108.5 L 97.964844 108.546875 C 100.625 107.734375 106.597656 110.929688 105.265625 113.777344 C 104.929688 114.222656 104.984375 115.019531 105.390625 115.519531 L 97.925781 122.367188 C 97.507812 121.984375 96.578125 121.992188 96.152344 122.367188 L 83.804688 133.234375 C 82.675781 134.226562 83.5625 135.066406 84.039062 135.511719 L 86.253906 137.542969 C 86.738281 137.984375 88.015625 138.578125 88.925781 137.695312 L 100.578125 126.433594 C 100.984375 126.042969 100.988281 125.203125 100.578125 124.816406 C 100.578125 124.816406 100.582031 124.808594 100.578125 124.808594 L 108.074219 117.9375 C 108.863281 118.59375 109.613281 118.648438 110.320312 118.472656 C 111.691406 118.128906 112.453125 119.355469 113.273438 120.253906 L 112.902344 120.585938 C 112.355469 121.09375 112.40625 121.949219 113.019531 122.511719 C 113.632812 123.078125 114.570312 123.125 115.117188 122.621094 L 117.566406 120.378906 C 118.117188 119.871094 118.066406 119.015625 117.449219 118.453125 C 116.894531 117.945312 116.089844 117.878906 115.53125 118.242188 C 113.851562 116.515625 114.734375 116.253906 112.519531 114.007812 L 108.367188 110.117188 C 105.378906 107.429688 101.5 107.433594 97.738281 108.5 Z M 97.738281 108.5 " clip-rule="nonzero"/></clipPath><clipPath id="5c8b8d1923"><path d="M 262 111 L 296.226562 111 L 296.226562 142 L 262 142 Z M 262 111 " clip-rule="nonzero"/></clipPath><clipPath id="6ff8ad5210"><path d="M 262.859375 111 L 296.226562 111 L 296.226562 141.855469 L 262.859375 141.855469 Z M 262.859375 111 " clip-rule="nonzero"/></clipPath><clipPath id="7f793e22a7"><path d="M 291.019531 112.9375 L 287.121094 116.507812 L 287.871094 118.933594 L 290.515625 119.621094 L 294.414062 116.046875 L 296.179688 117.664062 L 291.695312 123.585938 L 286.414062 122.664062 L 267.867188 140.769531 C 265.023438 143.394531 261.195312 139.460938 263.851562 137.21875 L 283.667969 120.035156 L 282.460938 115.132812 L 289.125 111.195312 Z M 266.625 138.316406 C 266.121094 137.851562 265.300781 137.851562 264.796875 138.316406 C 264.289062 138.777344 264.289062 139.527344 264.796875 139.992188 C 265.300781 140.453125 266.121094 140.453125 266.625 139.992188 C 267.132812 139.527344 267.132812 138.777344 266.625 138.316406 Z M 266.625 138.316406 " clip-rule="nonzero"/></clipPath><clipPath id="9256a44acd"><path d="M 263 111 L 296.226562 111 L 296.226562 142 L 263 142 Z M 263 111 " clip-rule="nonzero"/></clipPath><clipPath id="1889c8927b"><path d="M 260.578125 110.433594 L 296 110.433594 L 296 142 L 260.578125 142 Z M 260.578125 110.433594 " clip-rule="nonzero"/></clipPath><clipPath id="1f011dd476"><path d="M 260.578125 110.433594 L 281 110.433594 L 281 126 L 260.578125 126 Z M 260.578125 110.433594 " clip-rule="nonzero"/></clipPath><clipPath id="d607f7182d"><path d="M 262 110.433594 L 277 110.433594 L 277 123 L 262 123 Z M 262 110.433594 " clip-rule="nonzero"/></clipPath><clipPath id="9f693176dc"><path d="M 260.753906 110.671875 L 295.660156 110.671875 L 295.660156 141.304688 L 260.753906 141.304688 Z M 260.753906 110.671875 " clip-rule="nonzero"/></clipPath><clipPath id="d589264444"><path d="M 280.976562 111.5 L 280.746094 111.546875 C 278.085938 110.734375 272.117188 113.929688 273.445312 116.777344 C 273.78125 117.222656 273.726562 118.019531 273.320312 118.519531 L 280.785156 125.367188 C 281.203125 124.984375 282.132812 124.992188 282.5625 125.367188 L 294.90625 136.234375 C 296.035156 137.226562 295.148438 138.066406 294.671875 138.511719 L 292.457031 140.542969 C 291.972656 140.984375 290.695312 141.578125 289.785156 140.695312 L 278.132812 129.433594 C 277.726562 129.042969 277.726562 128.203125 278.132812 127.816406 C 278.132812 127.816406 278.132812 127.808594 278.132812 127.808594 L 270.636719 120.9375 C 269.847656 121.59375 269.097656 121.648438 268.390625 121.472656 C 267.019531 121.128906 266.257812 122.355469 265.4375 123.253906 L 265.808594 123.585938 C 266.355469 124.09375 266.304688 124.949219 265.691406 125.511719 C 265.078125 126.078125 264.140625 126.125 263.59375 125.621094 L 261.144531 123.378906 C 260.59375 122.871094 260.648438 122.015625 261.261719 121.453125 C 261.816406 120.945312 262.621094 120.878906 263.179688 121.242188 C 264.859375 119.515625 263.976562 119.253906 266.191406 117.007812 L 270.34375 113.117188 C 273.332031 110.429688 277.214844 110.433594 280.976562 111.5 Z M 280.976562 111.5 " clip-rule="nonzero"/></clipPath></defs><rect x="-37.5" width="450" fill="#ffffff" y="-37.499999" height="449.999989" fill-opacity="1"/><rect x="-37.5" width="450" fill="#183356" y="-37.499999" height="449.999989" fill-opacity="1"/><path fill="#f1bc53" d="M 186.867188 100.824219 C 139.015625 100.824219 99.976562 139.859375 99.976562 187.714844 C 99.976562 235.566406 139.015625 274.601562 186.867188 274.601562 C 234.71875 274.601562 273.757812 235.566406 273.757812 187.714844 C 273.757812 139.859375 235.136719 100.824219 186.867188 100.824219 M 186.867188 248.566406 C 184.875 248.566406 182.886719 248.464844 180.902344 248.269531 C 178.921875 248.070312 176.953125 247.777344 174.996094 247.386719 C 173.042969 246.996094 171.113281 246.511719 169.207031 245.933594 C 167.300781 245.351562 165.425781 244.679688 163.585938 243.917969 C 161.742188 243.152344 159.945312 242.300781 158.1875 241.363281 C 156.429688 240.421875 154.722656 239.398438 153.066406 238.289062 C 151.410156 237.183594 149.8125 235.996094 148.273438 234.734375 C 146.730469 233.46875 145.257812 232.132812 143.847656 230.722656 C 142.4375 229.3125 141.101562 227.839844 139.835938 226.296875 C 138.574219 224.757812 137.386719 223.160156 136.28125 221.503906 C 135.171875 219.847656 134.148438 218.140625 133.207031 216.382812 C 132.269531 214.625 131.414062 212.824219 130.652344 210.984375 C 129.886719 209.144531 129.21875 207.269531 128.636719 205.363281 C 128.058594 203.457031 127.574219 201.527344 127.183594 199.574219 C 126.792969 197.617188 126.496094 195.648438 126.300781 193.667969 C 126.105469 191.683594 126.003906 189.695312 126 187.703125 C 126.003906 185.710938 126.105469 183.722656 126.300781 181.738281 C 126.496094 179.757812 126.792969 177.789062 127.183594 175.832031 C 127.574219 173.878906 128.058594 171.949219 128.636719 170.042969 C 129.21875 168.136719 129.886719 166.261719 130.652344 164.421875 C 131.414062 162.582031 132.269531 160.78125 133.207031 159.023438 C 134.148438 157.265625 135.171875 155.558594 136.28125 153.902344 C 137.386719 152.246094 138.574219 150.648438 139.835938 149.109375 C 141.101562 147.566406 142.4375 146.09375 143.847656 144.683594 C 145.257812 143.273438 146.730469 141.9375 148.273438 140.671875 C 149.8125 139.410156 151.410156 138.222656 153.066406 137.117188 C 154.722656 136.007812 156.429688 134.984375 158.1875 134.042969 C 159.945312 133.105469 161.742188 132.253906 163.585938 131.488281 C 165.425781 130.726562 167.300781 130.054688 169.207031 129.472656 C 171.113281 128.894531 173.042969 128.410156 174.996094 128.019531 C 176.953125 127.628906 178.921875 127.335938 180.902344 127.136719 C 182.886719 126.941406 184.875 126.839844 186.867188 126.839844 C 188.859375 126.839844 190.847656 126.941406 192.832031 127.136719 C 194.8125 127.335938 196.78125 127.628906 198.738281 128.019531 C 200.691406 128.410156 202.621094 128.894531 204.527344 129.472656 C 206.433594 130.054688 208.308594 130.726562 210.148438 131.488281 C 211.992188 132.253906 213.789062 133.105469 215.546875 134.042969 C 217.304688 134.984375 219.011719 136.007812 220.667969 137.117188 C 222.324219 138.222656 223.921875 139.410156 225.464844 140.675781 C 227.003906 141.941406 228.476562 143.277344 229.886719 144.6875 C 231.296875 146.09375 232.632812 147.570312 233.898438 149.109375 C 235.164062 150.652344 236.347656 152.25 237.457031 153.90625 C 238.5625 155.5625 239.585938 157.269531 240.527344 159.027344 C 241.46875 160.785156 242.320312 162.582031 243.082031 164.425781 C 243.847656 166.265625 244.519531 168.140625 245.097656 170.046875 C 245.675781 171.953125 246.160156 173.882812 246.550781 175.835938 C 246.941406 177.792969 247.234375 179.761719 247.433594 181.742188 C 247.628906 183.726562 247.730469 185.714844 247.730469 187.707031 C 247.730469 189.699219 247.628906 191.6875 247.433594 193.671875 C 247.234375 195.65625 246.941406 197.625 246.550781 199.578125 C 246.160156 201.53125 245.675781 203.460938 245.097656 205.367188 C 244.515625 207.277344 243.84375 209.148438 243.082031 210.988281 C 242.316406 212.832031 241.464844 214.628906 240.527344 216.386719 C 239.585938 218.144531 238.5625 219.851562 237.453125 221.507812 C 236.347656 223.164062 235.160156 224.761719 233.894531 226.304688 C 232.632812 227.84375 231.296875 229.316406 229.886719 230.726562 C 228.476562 232.136719 227.003906 233.472656 225.460938 234.738281 C 223.921875 236 222.324219 237.1875 220.667969 238.296875 C 219.007812 239.402344 217.300781 240.425781 215.546875 241.367188 C 213.789062 242.308594 211.988281 243.160156 210.148438 243.921875 C 208.308594 244.6875 206.433594 245.359375 204.527344 245.9375 C 202.621094 246.515625 200.691406 247.003906 198.738281 247.394531 C 196.78125 247.78125 194.8125 248.078125 192.832031 248.273438 C 190.847656 248.472656 188.859375 248.570312 186.867188 248.574219 " fill-opacity="1" fill-rule="evenodd"/><g clip-path="url(#14d1e9ce75)"><path fill="#f1bc53" d="M 325.386719 187.707031 L 324.96875 178.472656 L 346.792969 165.046875 L 343.433594 147.839844 L 318.242188 143.644531 C 316.144531 137.769531 314.046875 131.894531 311.109375 126.433594 L 325.796875 105.867188 C 322.820312 100.808594 319.601562 95.914062 316.144531 91.175781 L 291.378906 97.050781 L 278.367188 84.039062 L 284.238281 59.273438 L 269.984375 49.609375 L 249.414062 64.296875 C 243.957031 61.308594 238.078125 59.257812 232.207031 57.164062 L 228.003906 31.988281 L 210.796875 28.625 L 197.363281 50.457031 C 194.378906 50.457031 191.066406 50.039062 188.132812 50.039062 L 178.898438 50.457031 L 164.625 28.625 C 158.75 29.46875 153.289062 30.726562 147.417969 31.984375 L 143.21875 57.171875 L 126.011719 64.304688 L 105.441406 49.621094 C 100.386719 52.59375 95.492188 55.8125 90.753906 59.273438 L 96.628906 84.039062 L 83.613281 97.050781 L 58.851562 91.175781 L 49.191406 105.859375 L 63.878906 126.429688 C 60.890625 131.886719 58.839844 137.765625 56.746094 143.636719 L 31.554688 147.835938 L 28.207031 165.046875 L 50.035156 178.480469 C 49.617188 181.464844 49.617188 184.777344 49.617188 187.714844 L 50.035156 196.945312 L 28.207031 210.378906 C 29.050781 216.25 30.308594 221.710938 31.566406 227.585938 L 56.753906 231.78125 C 58.878906 237.625 61.257812 243.359375 63.886719 248.992188 L 49.203125 269.558594 C 52.191406 274.597656 55.5 279.21875 58.859375 283.832031 L 83.625 277.957031 L 96.636719 290.96875 L 90.761719 315.734375 L 105.449219 325.390625 L 126.015625 310.707031 C 131.472656 313.695312 137.351562 315.746094 143.226562 317.839844 L 147.421875 343.027344 L 164.628906 346.390625 L 178.0625 324.5625 L 187.292969 324.980469 L 196.527344 324.5625 L 209.960938 346.390625 C 215.832031 345.542969 221.292969 344.289062 227.167969 343.027344 L 231.363281 317.839844 L 248.574219 310.707031 L 269.136719 325.386719 C 274.175781 322.398438 278.792969 319.089844 283.410156 315.730469 L 277.535156 290.964844 L 290.542969 277.949219 L 315.308594 283.820312 L 324.964844 269.550781 L 310.277344 248.980469 C 313.265625 243.523438 315.316406 237.644531 317.414062 231.773438 L 342.601562 227.574219 L 345.960938 210.367188 L 324.132812 196.9375 C 324.996094 193.917969 325.414062 190.839844 325.390625 187.703125 M 187.289062 282.148438 C 135.242188 282.148438 92.847656 239.757812 92.847656 187.707031 C 92.847656 135.660156 135.242188 93.265625 187.289062 93.265625 C 239.339844 93.265625 281.730469 135.660156 281.730469 187.707031 C 281.730469 239.757812 239.339844 282.148438 187.289062 282.148438 " fill-opacity="1" fill-rule="evenodd"/></g><g clip-path="url(#dfa5f8c632)"><path fill="#f1bc53" d="M 340.382812 187.5 C 340.382812 190 340.320312 192.5 340.199219 195 C 340.074219 197.5 339.890625 199.996094 339.644531 202.484375 C 339.402344 204.972656 339.09375 207.457031 338.726562 209.933594 C 338.359375 212.40625 337.933594 214.871094 337.445312 217.324219 C 336.957031 219.777344 336.410156 222.21875 335.800781 224.648438 C 335.191406 227.074219 334.523438 229.484375 333.800781 231.878906 C 333.074219 234.273438 332.289062 236.648438 331.445312 239.003906 C 330.601562 241.359375 329.703125 243.695312 328.746094 246.003906 C 327.785156 248.316406 326.773438 250.601562 325.703125 252.863281 C 324.632812 255.128906 323.507812 257.359375 322.328125 259.566406 C 321.152344 261.773438 319.917969 263.949219 318.632812 266.097656 C 317.34375 268.242188 316.007812 270.355469 314.617188 272.4375 C 313.226562 274.515625 311.785156 276.5625 310.296875 278.570312 C 308.804688 280.582031 307.265625 282.554688 305.679688 284.488281 C 304.09375 286.421875 302.457031 288.316406 300.777344 290.167969 C 299.097656 292.023438 297.371094 293.835938 295.605469 295.605469 C 293.835938 297.371094 292.023438 299.097656 290.167969 300.777344 C 288.316406 302.457031 286.421875 304.09375 284.488281 305.679688 C 282.554688 307.265625 280.582031 308.804688 278.570312 310.296875 C 276.5625 311.785156 274.515625 313.226562 272.4375 314.617188 C 270.355469 316.007812 268.242188 317.34375 266.097656 318.632812 C 263.949219 319.917969 261.773438 321.152344 259.566406 322.328125 C 257.359375 323.507812 255.128906 324.632812 252.863281 325.703125 C 250.601562 326.773438 248.316406 327.785156 246.003906 328.746094 C 243.695312 329.703125 241.359375 330.601562 239.003906 331.445312 C 236.648438 332.289062 234.273438 333.074219 231.878906 333.800781 C 229.484375 334.523438 227.074219 335.191406 224.648438 335.800781 C 222.21875 336.410156 219.777344 336.957031 217.324219 337.445312 C 214.871094 337.933594 212.40625 338.359375 209.933594 338.726562 C 207.457031 339.09375 204.972656 339.402344 202.484375 339.644531 C 199.996094 339.890625 197.5 340.074219 195 340.199219 C 192.5 340.320312 190 340.382812 187.5 340.382812 C 184.996094 340.382812 182.496094 340.320312 179.996094 340.199219 C 177.5 340.074219 175.003906 339.890625 172.515625 339.644531 C 170.023438 339.402344 167.542969 339.09375 165.066406 338.726562 C 162.59375 338.359375 160.128906 337.933594 157.671875 337.445312 C 155.21875 336.957031 152.777344 336.410156 150.351562 335.800781 C 147.925781 335.191406 145.515625 334.523438 143.121094 333.800781 C 140.726562 333.074219 138.351562 332.289062 135.996094 331.445312 C 133.640625 330.601562 131.304688 329.703125 128.992188 328.746094 C 126.683594 327.785156 124.394531 326.773438 122.132812 325.703125 C 119.871094 324.632812 117.636719 323.507812 115.429688 322.328125 C 113.222656 321.152344 111.046875 319.917969 108.902344 318.632812 C 106.753906 317.34375 104.640625 316.007812 102.5625 314.617188 C 100.480469 313.226562 98.4375 311.785156 96.425781 310.296875 C 94.417969 308.804688 92.445312 307.265625 90.511719 305.679688 C 88.578125 304.09375 86.683594 302.457031 84.828125 300.777344 C 82.976562 299.097656 81.164062 297.371094 79.394531 295.605469 C 77.625 293.835938 75.902344 292.023438 74.21875 290.167969 C 72.539062 288.316406 70.90625 286.421875 69.320312 284.488281 C 67.730469 282.554688 66.191406 280.582031 64.703125 278.570312 C 63.210938 276.5625 61.773438 274.515625 60.382812 272.4375 C 58.992188 270.355469 57.652344 268.242188 56.367188 266.097656 C 55.082031 263.949219 53.847656 261.773438 52.667969 259.566406 C 51.488281 257.359375 50.363281 255.128906 49.296875 252.863281 C 48.226562 250.601562 47.210938 248.316406 46.253906 246.003906 C 45.296875 243.695312 44.394531 241.359375 43.554688 239.003906 C 42.710938 236.648438 41.925781 234.273438 41.199219 231.878906 C 40.472656 229.484375 39.804688 227.074219 39.199219 224.648438 C 38.589844 222.21875 38.042969 219.777344 37.554688 217.324219 C 37.066406 214.871094 36.636719 212.40625 36.269531 209.933594 C 35.902344 207.457031 35.597656 204.972656 35.351562 202.484375 C 35.109375 199.996094 34.921875 197.5 34.800781 195 C 34.679688 192.5 34.617188 190 34.617188 187.5 C 34.617188 184.996094 34.679688 182.496094 34.800781 179.996094 C 34.921875 177.5 35.109375 175.003906 35.351562 172.515625 C 35.597656 170.023438 35.902344 167.542969 36.269531 165.066406 C 36.636719 162.59375 37.066406 160.128906 37.554688 157.671875 C 38.042969 155.21875 38.589844 152.777344 39.199219 150.351562 C 39.804688 147.925781 40.472656 145.515625 41.199219 143.121094 C 41.925781 140.726562 42.710938 138.351562 43.554688 135.996094 C 44.394531 133.640625 45.296875 131.304688 46.253906 128.992188 C 47.210938 126.683594 48.226562 124.394531 49.296875 122.132812 C 50.363281 119.871094 51.488281 117.636719 52.667969 115.429688 C 53.847656 113.222656 55.082031 111.046875 56.367188 108.902344 C 57.652344 106.753906 58.992188 104.644531 60.382812 102.5625 C 61.773438 100.480469 63.210938 98.4375 64.703125 96.425781 C 66.191406 94.417969 67.730469 92.445312 69.320312 90.511719 C 70.90625 88.578125 72.539062 86.683594 74.21875 84.828125 C 75.902344 82.976562 77.625 81.164062 79.394531 79.394531 C 81.164062 77.625 82.976562 75.902344 84.828125 74.21875 C 86.683594 72.539062 88.578125 70.90625 90.511719 69.320312 C 92.445312 67.730469 94.417969 66.191406 96.425781 64.703125 C 98.4375 63.210938 100.480469 61.773438 102.5625 60.382812 C 104.640625 58.992188 106.753906 57.652344 108.902344 56.367188 C 111.046875 55.082031 113.222656 53.847656 115.429688 52.667969 C 117.636719 51.488281 119.871094 50.363281 122.132812 49.296875 C 124.394531 48.226562 126.683594 47.210938 128.992188 46.253906 C 131.304688 45.296875 133.640625 44.394531 135.996094 43.554688 C 138.351562 42.710938 140.726562 41.925781 143.121094 41.199219 C 145.515625 40.472656 147.925781 39.804688 150.351562 39.199219 C 152.777344 38.589844 155.21875 38.042969 157.671875 37.554688 C 160.128906 37.066406 162.59375 36.636719 165.066406 36.269531 C 167.542969 35.902344 170.023438 35.597656 172.515625 35.351562 C 175.003906 35.109375 177.5 34.921875 179.996094 34.800781 C 182.496094 34.679688 184.996094 34.617188 187.5 34.617188 C 190 34.617188 192.5 34.679688 195 34.800781 C 197.5 34.921875 199.996094 35.109375 202.484375 35.351562 C 204.972656 35.597656 207.457031 35.902344 209.933594 36.269531 C 212.40625 36.636719 214.871094 37.066406 217.324219 37.554688 C 219.777344 38.042969 222.21875 38.589844 224.648438 39.199219 C 227.074219 39.804688 229.484375 40.472656 231.878906 41.199219 C 234.273438 41.925781 236.648438 42.710938 239.003906 43.554688 C 241.359375 44.394531 243.695312 45.296875 246.003906 46.253906 C 248.316406 47.210938 250.601562 48.226562 252.863281 49.296875 C 255.128906 50.363281 257.359375 51.488281 259.566406 52.667969 C 261.773438 53.847656 263.949219 55.082031 266.097656 56.367188 C 268.242188 57.652344 270.355469 58.992188 272.4375 60.382812 C 274.515625 61.773438 276.5625 63.210938 278.570312 64.703125 C 280.582031 66.191406 282.554688 67.730469 284.488281 69.320312 C 286.421875 70.90625 288.316406 72.539062 290.167969 74.21875 C 292.023438 75.902344 293.835938 77.625 295.605469 79.394531 C 297.371094 81.164062 299.097656 82.976562 300.777344 84.828125 C 302.457031 86.683594 304.09375 88.578125 305.679688 90.511719 C 307.265625 92.445312 308.804688 94.417969 310.296875 96.425781 C 311.785156 98.4375 313.226562 100.480469 314.617188 102.5625 C 316.007812 104.644531 317.34375 106.753906 318.632812 108.902344 C 319.917969 111.046875 321.152344 113.222656 322.328125 115.429688 C 323.507812 117.636719 324.632812 119.871094 325.703125 122.132812 C 326.773438 124.394531 327.785156 126.683594 328.746094 128.992188 C 329.703125 131.304688 330.601562 133.640625 331.445312 135.996094 C 332.289062 138.351562 333.074219 140.726562 333.800781 143.121094 C 334.523438 145.515625 335.191406 147.925781 335.800781 150.351562 C 336.410156 152.777344 336.957031 155.21875 337.445312 157.671875 C 337.933594 160.128906 338.359375 162.59375 338.726562 165.066406 C 339.09375 167.542969 339.402344 170.023438 339.644531 172.515625 C 339.890625 175.003906 340.074219 177.5 340.199219 179.996094 C 340.320312 182.496094 340.382812 184.996094 340.382812 187.5 Z M 340.382812 187.5 " fill-opacity="1" fill-rule="nonzero"/></g><g clip-path="url(#73c0aacf52)"><path fill="#183356" d="M 330.28125 187.496094 C 330.28125 189.832031 330.222656 192.167969 330.109375 194.5 C 329.996094 196.835938 329.824219 199.164062 329.59375 201.488281 C 329.363281 203.816406 329.078125 206.132812 328.734375 208.445312 C 328.394531 210.757812 327.992188 213.058594 327.539062 215.351562 C 327.082031 217.644531 326.570312 219.921875 326.003906 222.1875 C 325.433594 224.457031 324.8125 226.707031 324.132812 228.941406 C 323.453125 231.179688 322.722656 233.398438 321.933594 235.597656 C 321.148438 237.796875 320.308594 239.976562 319.414062 242.136719 C 318.519531 244.296875 317.570312 246.429688 316.574219 248.542969 C 315.574219 250.65625 314.523438 252.742188 313.421875 254.804688 C 312.320312 256.863281 311.167969 258.898438 309.96875 260.902344 C 308.765625 262.90625 307.515625 264.878906 306.21875 266.824219 C 304.917969 268.765625 303.574219 270.675781 302.183594 272.550781 C 300.789062 274.429688 299.351562 276.269531 297.871094 278.078125 C 296.386719 279.882812 294.863281 281.652344 293.292969 283.382812 C 291.722656 285.117188 290.113281 286.808594 288.460938 288.460938 C 286.808594 290.113281 285.117188 291.722656 283.382812 293.292969 C 281.652344 294.863281 279.882812 296.386719 278.078125 297.871094 C 276.269531 299.351562 274.429688 300.789062 272.550781 302.183594 C 270.675781 303.574219 268.765625 304.917969 266.824219 306.21875 C 264.878906 307.515625 262.90625 308.765625 260.902344 309.96875 C 258.898438 311.167969 256.863281 312.320312 254.804688 313.421875 C 252.742188 314.523438 250.65625 315.574219 248.542969 316.574219 C 246.429688 317.570312 244.296875 318.519531 242.136719 319.414062 C 239.976562 320.308594 237.796875 321.148438 235.597656 321.933594 C 233.398438 322.722656 231.179688 323.453125 228.941406 324.132812 C 226.707031 324.8125 224.457031 325.433594 222.1875 326.003906 C 219.921875 326.570312 217.644531 327.082031 215.351562 327.539062 C 213.058594 327.992188 210.757812 328.394531 208.445312 328.734375 C 206.132812 329.078125 203.816406 329.363281 201.488281 329.59375 C 199.164062 329.824219 196.835938 329.996094 194.5 330.109375 C 192.167969 330.222656 189.832031 330.28125 187.496094 330.28125 C 185.15625 330.28125 182.820312 330.222656 180.488281 330.109375 C 178.152344 329.996094 175.824219 329.824219 173.5 329.59375 C 171.171875 329.363281 168.855469 329.078125 166.542969 328.734375 C 164.230469 328.394531 161.929688 327.992188 159.636719 327.539062 C 157.347656 327.082031 155.066406 326.570312 152.800781 326.003906 C 150.53125 325.433594 148.28125 324.8125 146.046875 324.132812 C 143.808594 323.453125 141.589844 322.722656 139.390625 321.933594 C 137.191406 321.148438 135.011719 320.308594 132.851562 319.414062 C 130.691406 318.519531 128.558594 317.570312 126.445312 316.574219 C 124.332031 315.574219 122.246094 314.523438 120.183594 313.421875 C 118.125 312.320312 116.089844 311.167969 114.085938 309.96875 C 112.082031 308.765625 110.109375 307.515625 108.167969 306.21875 C 106.222656 304.917969 104.3125 303.574219 102.4375 302.183594 C 100.558594 300.789062 98.71875 299.351562 96.910156 297.871094 C 95.105469 296.386719 93.335938 294.863281 91.605469 293.292969 C 89.871094 291.722656 88.179688 290.113281 86.527344 288.460938 C 84.875 286.808594 83.265625 285.117188 81.695312 283.382812 C 80.125 281.652344 78.601562 279.882812 77.117188 278.078125 C 75.636719 276.269531 74.199219 274.429688 72.808594 272.550781 C 71.414062 270.675781 70.070312 268.765625 68.769531 266.824219 C 67.472656 264.878906 66.222656 262.90625 65.023438 260.902344 C 63.820312 258.898438 62.667969 256.863281 61.566406 254.804688 C 60.464844 252.742188 59.414062 250.65625 58.417969 248.542969 C 57.417969 246.429688 56.46875 244.296875 55.578125 242.136719 C 54.683594 239.976562 53.839844 237.796875 53.054688 235.597656 C 52.265625 233.398438 51.535156 231.179688 50.855469 228.941406 C 50.175781 226.707031 49.554688 224.457031 48.988281 222.1875 C 48.417969 219.921875 47.90625 217.644531 47.449219 215.351562 C 46.996094 213.058594 46.59375 210.757812 46.253906 208.445312 C 45.910156 206.132812 45.625 203.816406 45.394531 201.488281 C 45.164062 199.164062 44.992188 196.835938 44.878906 194.5 C 44.765625 192.167969 44.707031 189.832031 44.707031 187.496094 C 44.707031 185.15625 44.765625 182.820312 44.878906 180.488281 C 44.992188 178.152344 45.164062 175.824219 45.394531 173.5 C 45.625 171.171875 45.910156 168.855469 46.253906 166.542969 C 46.59375 164.230469 46.996094 161.929688 47.449219 159.636719 C 47.90625 157.347656 48.417969 155.066406 48.988281 152.800781 C 49.554688 150.53125 50.175781 148.28125 50.855469 146.046875 C 51.535156 143.808594 52.265625 141.589844 53.054688 139.390625 C 53.839844 137.191406 54.683594 135.011719 55.578125 132.851562 C 56.46875 130.691406 57.417969 128.558594 58.417969 126.445312 C 59.414062 124.332031 60.464844 122.246094 61.566406 120.183594 C 62.667969 118.125 63.820312 116.089844 65.023438 114.085938 C 66.222656 112.082031 67.472656 110.109375 68.769531 108.167969 C 70.070312 106.222656 71.414062 104.3125 72.808594 102.4375 C 74.199219 100.558594 75.636719 98.71875 77.117188 96.910156 C 78.601562 95.105469 80.125 93.335938 81.695312 91.605469 C 83.265625 89.871094 84.875 88.179688 86.527344 86.527344 C 88.179688 84.875 89.871094 83.265625 91.605469 81.695312 C 93.335938 80.125 95.105469 78.601562 96.910156 77.117188 C 98.71875 75.636719 100.558594 74.199219 102.4375 72.808594 C 104.3125 71.414062 106.222656 70.070312 108.167969 68.769531 C 110.109375 67.472656 112.082031 66.222656 114.085938 65.023438 C 116.089844 63.820312 118.125 62.667969 120.183594 61.566406 C 122.246094 60.464844 124.332031 59.414062 126.445312 58.417969 C 128.558594 57.417969 130.691406 56.46875 132.851562 55.578125 C 135.011719 54.683594 137.191406 53.839844 139.390625 53.054688 C 141.589844 52.265625 143.808594 51.535156 146.046875 50.855469 C 148.28125 50.175781 150.53125 49.554688 152.800781 48.988281 C 155.066406 48.417969 157.347656 47.90625 159.636719 47.449219 C 161.929688 46.996094 164.230469 46.59375 166.542969 46.253906 C 168.855469 45.910156 171.171875 45.625 173.5 45.394531 C 175.824219 45.164062 178.152344 44.992188 180.488281 44.878906 C 182.820312 44.765625 185.15625 44.707031 187.496094 44.707031 C 189.832031 44.707031 192.167969 44.765625 194.5 44.878906 C 196.835938 44.992188 199.164062 45.164062 201.488281 45.394531 C 203.816406 45.625 206.132812 45.910156 208.445312 46.253906 C 210.757812 46.59375 213.058594 46.996094 215.351562 47.449219 C 217.644531 47.90625 219.921875 48.417969 222.1875 48.988281 C 224.457031 49.554688 226.707031 50.175781 228.941406 50.855469 C 231.179688 51.535156 233.398438 52.265625 235.597656 53.054688 C 237.796875 53.839844 239.976562 54.683594 242.136719 55.578125 C 244.296875 56.46875 246.429688 57.417969 248.542969 58.417969 C 250.65625 59.414062 252.742188 60.464844 254.804688 61.566406 C 256.863281 62.667969 258.898438 63.820312 260.902344 65.023438 C 262.90625 66.222656 264.878906 67.472656 266.824219 68.769531 C 268.765625 70.070312 270.675781 71.414062 272.550781 72.808594 C 274.429688 74.199219 276.269531 75.636719 278.078125 77.117188 C 279.882812 78.601562 281.652344 80.125 283.382812 81.695312 C 285.117188 83.265625 286.808594 84.875 288.460938 86.527344 C 290.113281 88.179688 291.722656 89.871094 293.292969 91.605469 C 294.863281 93.335938 296.386719 95.105469 297.871094 96.910156 C 299.351562 98.71875 300.789062 100.558594 302.183594 102.4375 C 303.574219 104.3125 304.917969 106.222656 306.21875 108.167969 C 307.515625 110.109375 308.765625 112.082031 309.96875 114.085938 C 311.167969 116.089844 312.320312 118.125 313.421875 120.183594 C 314.523438 122.246094 315.574219 124.332031 316.574219 126.445312 C 317.570312 128.558594 318.519531 130.691406 319.414062 132.851562 C 320.308594 135.011719 321.148438 137.191406 321.933594 139.390625 C 322.722656 141.589844 323.453125 143.808594 324.132812 146.046875 C 324.8125 148.28125 325.433594 150.53125 326.003906 152.800781 C 326.570312 155.066406 327.082031 157.347656 327.539062 159.636719 C 327.992188 161.929688 328.394531 164.230469 328.734375 166.542969 C 329.078125 168.855469 329.363281 171.171875 329.59375 173.5 C 329.824219 175.824219 329.996094 178.152344 330.109375 180.488281 C 330.222656 182.820312 330.28125 185.15625 330.28125 187.496094 Z M 330.28125 187.496094 " fill-opacity="1" fill-rule="nonzero"/></g><g clip-path="url(#d9fd272faf)"><g clip-path="url(#2eabe3cb87)"><path fill="#183356" d="M 51.679688 51.679688 L 323.320312 51.679688 L 323.320312 323.320312 L 51.679688 323.320312 Z M 51.679688 51.679688 " fill-opacity="1" fill-rule="nonzero"/></g></g><g clip-path="url(#2261e1af4e)"><g clip-path="url(#dcc6b1b3e3)"><path stroke-linecap="butt" transform="matrix(0.75, 0, 0, 0.75, 51.680982, 51.680977)" fill="none" stroke-linejoin="miter" d="M 181.086828 -0.00171988 C 81.076404 -0.00171988 -0.00172588 81.07641 -0.00172588 181.086834 C -0.00172588 281.097257 81.076404 362.170179 181.086828 362.170179 C 281.097251 362.170179 362.170173 281.097257 362.170173 181.086834 C 362.170173 81.07641 281.097251 -0.00171988 181.086828 -0.00171988 Z M 181.086828 -0.00171988 " stroke="#ffffff" stroke-width="8" stroke-opacity="1" stroke-miterlimit="4"/></g></g><g clip-path="url(#0a7e90627f)"><g clip-path="url(#40abcc25fe)"><path fill="#183356" d="M 105.695312 105.695312 L 269.304688 105.695312 L 269.304688 269.304688 L 105.695312 269.304688 Z M 105.695312 105.695312 " fill-opacity="1" fill-rule="nonzero"/></g></g><g clip-path="url(#7a52c1c193)"><g clip-path="url(#5a9acb596d)"><path stroke-linecap="butt" transform="matrix(0.75, 0, 0, 0.75, 105.697147, 105.697143)" fill="none" stroke-linejoin="miter" d="M 109.070478 -0.00244021 C 48.83089 -0.00244021 -0.00244621 48.830896 -0.00244621 109.070484 C -0.00244621 169.310071 48.83089 218.138199 109.070478 218.138199 C 169.310065 218.138199 218.138193 169.310071 218.138193 109.070484 C 218.138193 48.830896 169.310065 -0.00244021 109.070478 -0.00244021 Z M 109.070478 -0.00244021 " stroke="#f1bc53" stroke-width="18" stroke-opacity="1" stroke-miterlimit="4"/></g></g><g clip-path="url(#e95c1034fe)"><g clip-path="url(#bc8bfc4425)"><path fill="#ffffff" d="M 118.132812 118.132812 L 256.867188 118.132812 L 256.867188 256.867188 L 118.132812 256.867188 Z M 118.132812 118.132812 " fill-opacity="1" fill-rule="nonzero"/></g></g><g fill="#ffffff" fill-opacity="1"><g transform="translate(142.383463, 103.92614)"><g><path d="M -3.335938 -13.523438 C -0.078125 -4.410156 5.808594 -1.65625 14.71875 -4.835938 C 19.730469 -6.625 22.777344 -9.210938 23.839844 -10.945312 L 21.695312 -16.953125 L 18.007812 -15.636719 C 18.855469 -12.480469 16.855469 -10.363281 12.960938 -8.972656 C 7.863281 -7.152344 4.355469 -9.125 2.089844 -15.464844 C -0.171875 -21.800781 1.332031 -25.5625 6.386719 -27.367188 C 10.367188 -28.789062 13.171875 -28.390625 14.515625 -25.414062 L 18.203125 -26.730469 L 16.058594 -32.738281 C 14.136719 -33.40625 10.140625 -33.472656 5.128906 -31.683594 C -3.738281 -28.515625 -6.589844 -22.640625 -3.335938 -13.523438 Z M -3.335938 -13.523438 "/></g></g></g><g fill="#ffffff" fill-opacity="1"><g transform="translate(170.086678, 94.333103)"><g><path d="M 0.859375 -13.902344 C 1.242188 -4.230469 6.125 0.15625 15.535156 -0.214844 C 21.027344 -0.433594 24.523438 -2.289062 26.003906 -3.753906 L 25.488281 -16.855469 L 13.882812 -16.398438 L 14.054688 -12.046875 L 19.902344 -12.277344 L 20.160156 -5.726562 C 19.125 -5.15625 17.515625 -4.652344 15.273438 -4.566406 C 9.734375 -4.347656 6.886719 -7.316406 6.621094 -14.128906 C 6.351562 -20.945312 9 -24.128906 14.539062 -24.347656 C 18.582031 -24.507812 20.878906 -23.277344 21.429688 -20.394531 L 25.34375 -20.546875 L 25.113281 -26.4375 C 23.480469 -27.652344 19.6875 -28.910156 14.367188 -28.699219 C 4.960938 -28.328125 0.480469 -23.574219 0.859375 -13.902344 Z M 0.859375 -13.902344 "/></g></g></g><g fill="#ffffff" fill-opacity="1"><g transform="translate(199.118548, 92.732262)"><g><path d="M 9.925781 -25.9375 L 8.769531 -22.242188 C 9.648438 -21.964844 10.390625 -21.6875 11.007812 -21.445312 L 5.773438 -4.738281 C 5.152344 -2.765625 4.769531 -2.5625 2.796875 -3.179688 L 1.636719 0.511719 L 10.328125 3.234375 L 11.484375 -0.457031 C 9.511719 -1.078125 9.351562 -1.449219 9.96875 -3.421875 L 13.785156 -15.597656 L 14.398438 4.511719 L 18.597656 5.828125 L 30.578125 -10.335938 L 26.761719 1.839844 C 26.144531 3.8125 25.800781 4.027344 23.828125 3.410156 L 22.671875 7.105469 L 32.621094 10.222656 L 33.777344 6.527344 C 31.804688 5.910156 31.601562 5.523438 32.222656 3.550781 L 36.773438 -10.976562 C 37.390625 -12.949219 37.777344 -13.152344 39.75 -12.53125 L 40.90625 -16.226562 L 31.714844 -19.109375 L 19.945312 -3.476562 L 19.246094 -23.015625 Z M 9.925781 -25.9375 "/></g></g></g><g fill="#ffffff" fill-opacity="1"><g transform="translate(66.502007, 191.565688)"><g><path d="M 16.742188 23.785156 C 24.496094 22.394531 28.222656 18.199219 26.941406 11.058594 L 25.726562 4.265625 L 25.332031 2.078125 L 24.460938 -2.796875 L 21.082031 -2.191406 C 21.40625 -0.386719 21.183594 -0.0703125 19.378906 0.25 L 6.097656 2.632812 C 4.292969 2.957031 3.976562 2.734375 3.652344 0.929688 L 0.273438 1.535156 L 1.148438 6.410156 L 1.539062 8.597656 L 2.757812 15.394531 C 4.039062 22.535156 8.988281 25.171875 16.742188 23.785156 Z M 21.808594 4.96875 L 22.800781 10.496094 C 23.632812 15.140625 21.445312 17.75 15.839844 18.753906 C 10.238281 19.757812 7.277344 18.070312 6.445312 13.425781 L 5.457031 7.898438 Z M 21.808594 4.96875 "/></g></g></g><g fill="#ffffff" fill-opacity="1"><g transform="translate(73.612691, 225.246316)"><g><path d="M 14.308594 21.558594 C 13.171875 19.25 13.195312 18.761719 14.335938 17.546875 L 16.882812 14.421875 C 17.566406 13.695312 18.058594 12.929688 18.34375 12.09375 C 20.390625 14.21875 22.8125 14.546875 25.925781 13.011719 C 30.230469 10.894531 31.105469 7.550781 28.660156 2.582031 L 25.917969 -2.980469 L 25.230469 -4.382812 L 22.75 -9.417969 L 19.671875 -7.902344 C 20.480469 -6.257812 20.355469 -5.894531 18.710938 -5.082031 L 6.605469 0.878906 C 4.960938 1.6875 4.59375 1.5625 3.785156 -0.0820312 L 0.707031 1.433594 L 4.808594 9.761719 L 7.886719 8.246094 C 7.074219 6.601562 7.199219 6.234375 8.84375 5.425781 L 12.695312 3.53125 L 14.019531 6.226562 C 14.949219 8.113281 14.734375 9.265625 13.734375 10.410156 L 10.308594 14.3125 C 8.554688 16.046875 8.332031 17.71875 9.574219 20.238281 C 10.503906 22.128906 11.335938 23.023438 11.335938 23.023438 Z M 22.488281 -1.292969 L 24.78125 3.359375 C 26.023438 5.878906 25.558594 7.5 23.390625 8.566406 C 21.183594 9.652344 19.652344 9.015625 18.414062 6.496094 L 16.121094 1.84375 Z M 22.488281 -1.292969 "/></g></g></g><g fill="#ffffff" fill-opacity="1"><g transform="translate(89.101935, 254.404968)"><g><path d="M 16.199219 -13.59375 C 17.773438 -11.808594 17.828125 -11.335938 16.976562 -8.710938 L 13.0625 1.464844 L 10.605469 3.636719 C 9.234375 4.851562 8.847656 4.828125 7.632812 3.453125 L 5.0625 5.726562 L 11.210938 12.679688 L 13.78125 10.40625 C 12.566406 9.035156 12.59375 8.648438 13.964844 7.433594 L 16.417969 5.265625 L 26.996094 2.628906 C 29.679688 2.128906 30.171875 2.214844 31.75 3.996094 L 34.320312 1.722656 L 28.429688 -4.9375 L 25.859375 -2.664062 C 26.609375 -1.816406 26.882812 -1.332031 26.53125 -1.019531 C 26.296875 -0.8125 25.792969 -0.679688 25.039062 -0.53125 L 18.109375 1.167969 L 20.644531 -5.5 C 20.882812 -6.230469 21.078125 -6.714844 21.3125 -6.921875 C 21.664062 -7.234375 22.085938 -6.929688 22.835938 -6.082031 L 25.40625 -8.355469 L 18.769531 -15.867188 Z M 16.199219 -13.59375 "/></g></g></g><g fill="#ffffff" fill-opacity="1"><g transform="translate(110.356349, 277.072012)"><g><path d="M 14.910156 -19.582031 L 12.988281 -16.734375 C 14.507812 -15.710938 14.582031 -15.332031 13.554688 -13.8125 L 6.007812 -2.625 C 4.980469 -1.105469 4.601562 -1.035156 3.082031 -2.058594 L 1.164062 0.785156 L 4.816406 3.25 L 7.113281 4.800781 L 19.007812 12.828125 L 23.4375 6.265625 L 20.558594 4.324219 C 18.53125 7.332031 18.128906 7.4375 15.125 5.40625 L 9.335938 1.503906 L 17.757812 -10.976562 C 18.785156 -12.496094 19.132812 -12.589844 20.648438 -11.566406 L 22.570312 -14.410156 Z M 14.910156 -19.582031 "/></g></g></g><g fill="#ffffff" fill-opacity="1"><g transform="translate(135.256272, 292.512001)"><g><path d="M 1.4375 0.601562 L 10.003906 4.179688 L 11.328125 1.011719 C 9.636719 0.304688 9.488281 -0.0507812 10.195312 -1.742188 L 15.398438 -14.195312 C 16.105469 -15.886719 16.460938 -16.03125 18.152344 -15.324219 L 19.476562 -18.492188 L 10.910156 -22.070312 L 9.585938 -18.902344 C 11.277344 -18.195312 11.425781 -17.839844 10.71875 -16.148438 L 5.515625 -3.695312 C 4.8125 -2.003906 4.453125 -1.859375 2.761719 -2.566406 Z M 1.4375 0.601562 "/></g></g></g><g fill="#ffffff" fill-opacity="1"><g transform="translate(152.379149, 299.805666)"><g><path d="M 5.320312 -20.515625 C 6.203125 -20.355469 6.886719 -20.191406 7.363281 -19.988281 L 4.597656 -4.792969 C 4.269531 -2.988281 3.953125 -2.769531 2.148438 -3.097656 L 1.535156 0.28125 L 9.898438 1.800781 L 10.515625 -1.574219 C 8.710938 -1.902344 8.527344 -2.214844 8.859375 -4.015625 L 10.8125 -14.761719 L 19.261719 3.503906 L 24.019531 4.371094 L 27.425781 -14.351562 C 27.753906 -16.15625 28.035156 -16.382812 29.839844 -16.054688 L 30.453125 -19.429688 L 22.089844 -20.953125 L 21.472656 -17.578125 C 23.277344 -17.25 23.496094 -16.929688 23.167969 -15.128906 L 21.253906 -4.613281 L 12.726562 -22.65625 L 5.933594 -23.894531 Z M 5.320312 -20.515625 "/></g></g></g><g fill="#ffffff" fill-opacity="1"><g transform="translate(185.439196, 304.335446)"><g><path d="M 1.558594 -0.0546875 L 10.835938 -0.386719 L 10.710938 -3.816406 C 8.882812 -3.75 8.597656 -4.015625 8.53125 -5.847656 L 8.050781 -19.332031 C 7.988281 -21.164062 8.25 -21.445312 10.082031 -21.511719 L 9.960938 -24.941406 L 0.683594 -24.609375 L 0.804688 -21.179688 C 2.636719 -21.246094 2.917969 -20.980469 2.984375 -19.152344 L 3.464844 -5.664062 C 3.53125 -3.832031 3.269531 -3.550781 1.4375 -3.484375 Z M 1.558594 -0.0546875 "/></g></g></g><g fill="#ffffff" fill-opacity="1"><g transform="translate(204.043491, 303.803002)"><g><path d="M -3.746094 -20.863281 C -2.878906 -21.085938 -2.1875 -21.222656 -1.667969 -21.234375 L 2.171875 -6.277344 C 2.628906 -4.5 2.433594 -4.167969 0.65625 -3.710938 L 1.511719 -0.386719 L 9.746094 -2.503906 L 8.890625 -5.828125 C 7.117188 -5.371094 6.824219 -5.578125 6.367188 -7.351562 L 3.652344 -17.929688 L 18.960938 -4.871094 L 23.648438 -6.070312 L 18.914062 -24.507812 C 18.457031 -26.28125 18.617188 -26.605469 20.390625 -27.058594 L 19.539062 -30.382812 L 11.304688 -28.269531 L 12.15625 -24.945312 C 13.933594 -25.402344 14.265625 -25.203125 14.71875 -23.429688 L 17.378906 -13.078125 L 2.085938 -25.902344 L -4.601562 -24.1875 Z M -3.746094 -20.863281 "/></g></g></g><g fill="#ffffff" fill-opacity="1"><g transform="translate(236.703206, 294.265068)"><g><path d="M -5.039062 -11.273438 C -0.761719 -3.835938 4.875 -2.394531 12.113281 -6.554688 C 16.339844 -8.984375 18.320312 -11.875 18.882812 -13.636719 L 13.09375 -23.714844 L 4.164062 -18.585938 L 6.089844 -15.238281 L 10.585938 -17.820312 L 13.480469 -12.78125 C 12.902344 -11.910156 11.84375 -10.855469 10.121094 -9.863281 C 5.859375 -7.414062 2.402344 -8.578125 -0.609375 -13.820312 C -3.621094 -19.058594 -2.847656 -22.652344 1.410156 -25.097656 C 4.523438 -26.886719 6.828125 -26.863281 8.449219 -24.824219 L 11.460938 -26.554688 L 8.855469 -31.085938 C 7.074219 -31.367188 3.578125 -30.796875 -0.511719 -28.449219 C -7.75 -24.289062 -9.3125 -18.714844 -5.039062 -11.273438 Z M -5.039062 -11.273438 "/></g></g></g><g fill="#ffffff" fill-opacity="1"><g transform="translate(262.201809, 278.163437)"><g/></g></g><g fill="#ffffff" fill-opacity="1"><g transform="translate(273.713096, 268.425339)"><g><path d="M -18.261719 -16.5 L -15.585938 -14.347656 C -14.4375 -15.773438 -14.054688 -15.816406 -12.625 -14.667969 L -2.113281 -6.207031 C -0.6875 -5.058594 -0.644531 -4.671875 -1.792969 -3.246094 L 0.878906 -1.09375 L 3.644531 -4.527344 L 5.378906 -6.683594 L 14.378906 -17.863281 L 8.210938 -22.828125 L 6.035156 -20.125 C 8.859375 -17.851562 8.933594 -17.441406 6.65625 -14.617188 L 2.28125 -9.179688 L -9.445312 -18.617188 C -10.875 -19.765625 -10.941406 -20.121094 -9.792969 -21.546875 L -12.464844 -23.699219 Z M -18.261719 -16.5 "/></g></g></g><g fill="#ffffff" fill-opacity="1"><g transform="translate(291.711275, 244.674444)"><g><path d="M -21.929688 -11.105469 L -14.792969 -7.769531 L -13.457031 -10.632812 C -16.742188 -12.167969 -16.875 -12.53125 -15.339844 -15.816406 L -15.125 -16.277344 L -1.484375 -9.90625 C 0.175781 -9.128906 0.308594 -8.765625 -0.46875 -7.105469 L 2.640625 -5.652344 L 6.570312 -14.0625 L 3.460938 -15.515625 C 2.683594 -13.855469 2.320312 -13.722656 0.660156 -14.5 L -12.980469 -20.871094 L -12.765625 -21.328125 C -11.230469 -24.617188 -10.867188 -24.746094 -7.582031 -23.210938 L -6.242188 -26.074219 L -13.382812 -29.410156 Z M -21.929688 -11.105469 "/></g></g></g><g fill="#ffffff" fill-opacity="1"><g transform="translate(303.304176, 218.673074)"><g><path d="M -7.441406 -28.117188 C -15.195312 -29.507812 -20.148438 -26.867188 -21.425781 -19.726562 L -22.644531 -12.933594 L -23.035156 -10.746094 L -23.910156 -5.867188 L -20.53125 -5.261719 C -20.207031 -7.066406 -19.890625 -7.289062 -18.085938 -6.964844 L -4.804688 -4.585938 C -3 -4.261719 -2.78125 -3.945312 -3.101562 -2.140625 L 0.273438 -1.535156 L 1.148438 -6.410156 L 1.539062 -8.597656 L 2.757812 -15.394531 C 4.039062 -22.535156 0.3125 -26.726562 -7.441406 -28.117188 Z M -18.726562 -12.230469 L -17.738281 -17.757812 C -16.90625 -22.402344 -13.949219 -24.09375 -8.34375 -23.089844 C -2.738281 -22.085938 -0.550781 -19.472656 -1.382812 -14.828125 L -2.375 -9.300781 Z M -18.726562 -12.230469 "/></g></g></g><g clip-path="url(#10d6af851e)"><path fill="#183356" d="M 226.910156 198.082031 L 147.796875 198.082031 L 149.878906 210.128906 C 150.957031 216.394531 180.996094 217.882812 182.164062 213.910156 L 183.539062 208.246094 C 184.128906 205.820312 190.574219 205.816406 191.167969 208.246094 L 192.542969 213.910156 C 193.714844 217.886719 223.75 216.390625 224.832031 210.128906 Z M 148.492188 196.625 C 147.230469 196.625 146.335938 195.09375 145.613281 193.839844 C 145.246094 193.109375 144.46875 192.988281 143.730469 192.988281 C 143.75 193.3125 143.769531 193.628906 143.792969 193.949219 C 144.351562 200.203125 145.714844 207.449219 147.714844 213.480469 L 151.574219 215.742188 C 154.28125 226.257812 163.449219 245.066406 173.964844 250.699219 C 178.792969 253.285156 195.914062 253.285156 200.742188 250.699219 C 211.257812 245.066406 220.425781 226.257812 223.132812 215.742188 L 226.992188 213.480469 C 228.992188 207.449219 230.355469 200.203125 230.914062 193.949219 C 230.9375 193.628906 230.957031 193.3125 230.976562 192.988281 C 230.238281 192.988281 229.460938 193.109375 229.09375 193.839844 C 228.371094 195.09375 227.476562 196.625 226.21875 196.625 Z M 170.367188 257.929688 C 158.316406 250.617188 149.492188 235.097656 144.277344 221.246094 L 140.773438 219.191406 C 137.480469 210.191406 135.777344 200.769531 135.25 192.992188 L 129.574219 192.992188 C 129.234375 192.484375 129.015625 191.828125 128.9375 191 C 128.808594 187.25 128.957031 183.5625 129.347656 179.738281 C 130.167969 171.753906 133.621094 174.175781 133.804688 170.167969 C 135.28125 152.886719 145.101562 137.71875 158.4375 128.480469 C 162.367188 153.289062 169.929688 172.449219 169.929688 172.449219 C 167.59375 154.199219 164.359375 138.25 163.988281 126.109375 C 163.925781 124.078125 164.390625 120.636719 166.511719 119.699219 C 179.695312 113.855469 195.011719 113.855469 208.195312 119.699219 C 210.316406 120.636719 210.78125 124.078125 210.71875 126.109375 C 210.347656 138.25 207.113281 154.195312 204.777344 172.449219 C 204.777344 172.449219 212.335938 153.289062 216.273438 128.480469 C 229.605469 137.71875 239.425781 152.890625 240.902344 170.167969 C 241.085938 174.175781 244.535156 171.753906 245.355469 179.738281 C 245.75 183.5625 245.898438 187.25 245.769531 191 C 245.691406 191.828125 245.472656 192.484375 245.132812 192.992188 L 239.457031 192.992188 C 238.929688 200.769531 237.222656 210.191406 233.933594 219.191406 L 230.429688 221.246094 C 225.214844 235.097656 216.390625 250.621094 204.339844 257.929688 C 198.617188 261.394531 176.089844 261.394531 170.367188 257.929688 " fill-opacity="1" fill-rule="evenodd"/></g><g clip-path="url(#924984bac6)"><path fill="#f1bc53" d="M 87.691406 109.9375 L 91.589844 113.507812 L 90.839844 115.933594 L 88.195312 116.621094 L 84.296875 113.046875 L 82.53125 114.664062 L 87.015625 120.585938 L 92.296875 119.664062 L 110.84375 137.769531 C 113.6875 140.394531 117.515625 136.460938 114.859375 134.21875 L 95.042969 117.035156 L 96.25 112.132812 L 89.585938 108.195312 Z M 112.085938 135.316406 C 112.589844 134.851562 113.410156 134.851562 113.914062 135.316406 C 114.421875 135.777344 114.421875 136.527344 113.914062 136.992188 C 113.410156 137.453125 112.589844 137.453125 112.085938 136.992188 C 111.578125 136.527344 111.578125 135.777344 112.085938 135.316406 Z M 112.085938 135.316406 " fill-opacity="1" fill-rule="nonzero"/><path fill="#f1bc53" d="M 87.691406 109.9375 L 91.589844 113.507812 L 90.839844 115.933594 L 88.195312 116.621094 L 84.296875 113.046875 L 82.53125 114.664062 L 87.015625 120.585938 L 92.296875 119.664062 L 110.84375 137.769531 C 113.6875 140.394531 117.515625 136.460938 114.859375 134.21875 L 95.042969 117.035156 L 96.25 112.132812 L 89.585938 108.195312 Z M 112.085938 135.316406 C 112.589844 134.851562 113.410156 134.851562 113.914062 135.316406 C 114.421875 135.777344 114.421875 136.527344 113.914062 136.992188 C 113.410156 137.453125 112.589844 137.453125 112.085938 136.992188 C 111.578125 136.527344 111.578125 135.777344 112.085938 135.316406 Z M 112.085938 135.316406 " fill-opacity="1" fill-rule="nonzero"/><path fill="#f1bc53" d="M 87.691406 109.9375 L 91.589844 113.507812 L 90.839844 115.933594 L 88.195312 116.621094 L 84.296875 113.046875 L 82.53125 114.664062 L 87.015625 120.585938 L 92.296875 119.664062 L 110.84375 137.769531 C 113.6875 140.394531 117.515625 136.460938 114.859375 134.21875 L 95.042969 117.035156 L 96.25 112.132812 L 89.585938 108.195312 Z M 112.085938 135.316406 C 112.589844 134.851562 113.410156 134.851562 113.914062 135.316406 C 114.421875 135.777344 114.421875 136.527344 113.914062 136.992188 C 113.410156 137.453125 112.589844 137.453125 112.085938 136.992188 C 111.578125 136.527344 111.578125 135.777344 112.085938 135.316406 Z M 112.085938 135.316406 " fill-opacity="1" fill-rule="nonzero"/></g><g clip-path="url(#1f06f3bce2)"><g clip-path="url(#7328294e29)"><path fill="#f1bc53" d="M 87.691406 109.9375 L 91.589844 113.507812 L 90.839844 115.933594 L 88.195312 116.621094 L 84.296875 113.046875 L 82.53125 114.664062 L 87.015625 120.585938 L 92.296875 119.664062 L 110.84375 137.769531 C 113.6875 140.394531 117.515625 136.460938 114.859375 134.21875 L 95.042969 117.035156 L 96.25 112.132812 L 89.585938 108.195312 Z M 112.085938 135.316406 C 112.589844 134.851562 113.410156 134.851562 113.914062 135.316406 C 114.421875 135.777344 114.421875 136.527344 113.914062 136.992188 C 113.410156 137.453125 112.589844 137.453125 112.085938 136.992188 C 111.578125 136.527344 111.578125 135.777344 112.085938 135.316406 Z M 112.085938 135.316406 " fill-opacity="1" fill-rule="nonzero"/></g></g><g clip-path="url(#d2f732c371)"><path fill="#f1bc53" d="M 88.265625 109.4375 L 92.3125 113.132812 L 91.3125 116.355469 L 88.015625 117.257812 L 83.933594 113.46875 L 82.507812 114.722656 L 86.78125 120.222656 L 92.46875 119.082031 L 111.277344 137.394531 C 113.535156 139.683594 117.355469 136.65625 114.632812 134.191406 L 94.5 116.78125 L 95.660156 112.042969 L 89.652344 108.171875 L 88.265625 109.441406 Z M 112.332031 135.183594 C 112.835938 134.722656 113.726562 134.632812 114.226562 135.101562 C 114.738281 135.5625 115.148438 136.378906 114.421875 137.265625 C 113.820312 137.816406 112.859375 137.796875 112.257812 137.199219 C 111.75 136.734375 111.820312 135.65625 112.332031 135.183594 Z M 112.332031 135.183594 " fill-opacity="1" fill-rule="nonzero"/></g><path fill="#f1bc53" d="M 88.226562 109.445312 L 95.289062 115.972656 L 96.257812 112.144531 L 89.605469 108.171875 Z M 88.226562 109.445312 " fill-opacity="1" fill-rule="nonzero"/><path fill="#f1bc53" d="M 102.230469 123.269531 L 103.625 124.449219 C 103.738281 125.644531 103.40625 126 101.269531 127.664062 L 98.679688 125.117188 Z M 102.230469 123.269531 " fill-opacity="1" fill-rule="nonzero"/><g clip-path="url(#724b7b7fba)"><path fill="#f1bc53" d="M 97.738281 108.5 L 97.964844 108.546875 C 100.625 107.734375 106.597656 110.929688 105.265625 113.777344 C 104.929688 114.222656 104.984375 115.019531 105.390625 115.519531 L 97.925781 122.367188 C 97.507812 121.984375 96.578125 121.992188 96.152344 122.367188 L 83.804688 133.234375 C 82.675781 134.226562 83.5625 135.066406 84.039062 135.511719 L 86.253906 137.542969 C 86.738281 137.984375 88.015625 138.578125 88.925781 137.695312 L 100.578125 126.433594 C 100.984375 126.042969 100.988281 125.203125 100.578125 124.816406 C 100.578125 124.816406 100.582031 124.808594 100.578125 124.808594 L 108.074219 117.9375 C 108.863281 118.59375 109.613281 118.648438 110.320312 118.472656 C 111.691406 118.128906 112.453125 119.355469 113.273438 120.253906 L 112.902344 120.585938 C 112.355469 121.09375 112.40625 121.949219 113.019531 122.511719 C 113.632812 123.078125 114.570312 123.125 115.117188 122.621094 L 117.566406 120.378906 C 118.117188 119.871094 118.066406 119.015625 117.449219 118.453125 C 116.894531 117.945312 116.089844 117.878906 115.53125 118.242188 C 113.851562 116.515625 114.734375 116.253906 112.519531 114.007812 L 108.367188 110.117188 C 105.378906 107.429688 101.5 107.433594 97.738281 108.5 Z M 97.738281 108.5 " fill-opacity="1" fill-rule="nonzero"/><path fill="#f1bc53" d="M 97.738281 108.5 L 97.964844 108.546875 C 100.625 107.734375 106.597656 110.929688 105.265625 113.777344 C 104.929688 114.222656 104.984375 115.019531 105.390625 115.519531 L 97.925781 122.367188 C 97.507812 121.984375 96.578125 121.992188 96.152344 122.367188 L 83.804688 133.234375 C 82.675781 134.226562 83.5625 135.066406 84.039062 135.511719 L 86.253906 137.542969 C 86.738281 137.984375 88.015625 138.578125 88.925781 137.695312 L 100.578125 126.433594 C 100.984375 126.042969 100.988281 125.203125 100.578125 124.816406 C 100.578125 124.816406 100.582031 124.808594 100.578125 124.808594 L 108.074219 117.9375 C 108.863281 118.59375 109.613281 118.648438 110.320312 118.472656 C 111.691406 118.128906 112.453125 119.355469 113.273438 120.253906 L 112.902344 120.585938 C 112.355469 121.09375 112.40625 121.949219 113.019531 122.511719 C 113.632812 123.078125 114.570312 123.125 115.117188 122.621094 L 117.566406 120.378906 C 118.117188 119.871094 118.066406 119.015625 117.449219 118.453125 C 116.894531 117.945312 116.089844 117.878906 115.53125 118.242188 C 113.851562 116.515625 114.734375 116.253906 112.519531 114.007812 L 108.367188 110.117188 C 105.378906 107.429688 101.5 107.433594 97.738281 108.5 Z M 97.738281 108.5 " fill-opacity="1" fill-rule="nonzero"/></g><path fill="#f1bc53" d="M 105.898438 115.054688 L 97.035156 123.179688 L 99.691406 125.617188 L 108.554688 117.492188 Z M 105.898438 115.054688 " fill-opacity="1" fill-rule="nonzero"/><path fill="#f1bc53" d="M 107.707031 116.714844 L 98.84375 124.835938 L 99.691406 125.617188 L 108.554688 117.496094 Z M 107.707031 116.714844 " fill-opacity="1" fill-rule="nonzero"/><path fill="#f1bc53" d="M 106.960938 115.410156 L 98.136719 123.503906 L 99.277344 124.550781 L 107.878906 116.25 Z M 106.960938 115.410156 " fill-opacity="1" fill-rule="nonzero"/><g clip-path="url(#4e9da86d17)"><path fill="#f1bc53" d="M 97.738281 108.5 L 97.964844 108.546875 C 100.625 107.734375 106.597656 110.929688 105.265625 113.777344 C 104.929688 114.226562 104.984375 115.019531 105.390625 115.519531 L 108.074219 117.9375 C 108.863281 118.59375 109.609375 118.648438 110.320312 118.472656 C 111.691406 118.132812 112.453125 119.355469 113.273438 120.253906 L 112.902344 120.589844 C 112.355469 121.097656 112.40625 121.953125 113.019531 122.515625 C 113.632812 123.078125 114.570312 123.125 115.117188 122.621094 L 117.566406 120.378906 C 118.117188 119.871094 118.0625 119.015625 117.449219 118.457031 C 116.894531 117.945312 116.089844 117.878906 115.53125 118.242188 C 113.851562 116.515625 114.734375 116.253906 112.519531 114.007812 L 108.367188 110.117188 C 105.378906 107.429688 101.5 107.433594 97.738281 108.5 Z M 97.738281 108.5 " fill-opacity="1" fill-rule="nonzero"/></g><g clip-path="url(#5904119a37)"><path fill="#f1bc53" d="M 115.53125 118.242188 C 113.851562 116.515625 114.730469 116.253906 112.515625 114.003906 L 108.367188 110.117188 C 106.65625 108.578125 104.648438 107.921875 102.542969 107.839844 L 114.917969 119.296875 L 115.8125 118.546875 L 115.527344 118.242188 Z M 115.53125 118.242188 " fill-opacity="1" fill-rule="nonzero"/></g><path fill="#f1bc53" d="M 105.457031 112.917969 C 105.46875 113.191406 105.402344 113.46875 105.261719 113.777344 C 104.929688 114.222656 104.984375 115.019531 105.390625 115.519531 L 108.074219 117.9375 C 108.863281 118.59375 109.609375 118.648438 110.320312 118.472656 C 110.648438 118.378906 110.941406 118.398438 111.21875 118.472656 C 112.0625 118.683594 105.453125 112.800781 105.457031 112.890625 Z M 105.457031 112.917969 " fill-opacity="1" fill-rule="nonzero"/><path fill="#f1bc53" d="M 97.925781 122.367188 C 97.507812 121.984375 96.578125 121.992188 96.152344 122.367188 L 83.804688 133.234375 C 82.679688 134.226562 83.558594 135.066406 84.039062 135.511719 L 86.253906 137.542969 C 86.738281 137.984375 88.015625 138.578125 88.925781 137.695312 L 100.578125 126.433594 C 100.984375 126.042969 100.988281 125.203125 100.578125 124.816406 C 100.578125 124.816406 100.582031 124.808594 100.578125 124.808594 Z M 97.925781 122.367188 " fill-opacity="1" fill-rule="nonzero"/><path fill="#f1bc53" d="M 84.035156 135.507812 L 86.25 137.542969 C 86.734375 137.984375 87.972656 138.617188 88.882812 137.738281 L 100.578125 126.433594 C 100.984375 126.039062 101 125.191406 100.578125 124.808594 L 97.921875 122.371094 Z M 84.035156 135.507812 " fill-opacity="1" fill-rule="nonzero"/><path fill="#f1bc53" d="M 96.351562 123.320312 L 84.652344 133.816406 C 84.164062 134.246094 84.328125 134.851562 84.683594 135.167969 L 85.925781 136.261719 L 98.675781 124.230469 L 97.496094 123.214844 C 97.242188 122.996094 96.652344 123.058594 96.351562 123.320312 Z M 96.351562 123.320312 " fill-opacity="1" fill-rule="nonzero"/><g clip-path="url(#1d081c4aa0)"><g clip-path="url(#b2c2db8ca4)"><path fill="#f1bc53" d="M 97.738281 108.5 L 97.964844 108.546875 C 100.625 107.734375 106.597656 110.929688 105.265625 113.777344 C 104.929688 114.222656 104.984375 115.019531 105.390625 115.519531 L 97.925781 122.367188 C 97.507812 121.984375 96.578125 121.992188 96.152344 122.367188 L 83.804688 133.234375 C 82.675781 134.226562 83.5625 135.066406 84.039062 135.511719 L 86.253906 137.542969 C 86.738281 137.984375 88.015625 138.578125 88.925781 137.695312 L 100.578125 126.433594 C 100.984375 126.042969 100.988281 125.203125 100.578125 124.816406 C 100.578125 124.816406 100.582031 124.808594 100.578125 124.808594 L 108.074219 117.9375 C 108.863281 118.59375 109.613281 118.648438 110.320312 118.472656 C 111.691406 118.128906 112.453125 119.355469 113.273438 120.253906 L 112.902344 120.585938 C 112.355469 121.09375 112.40625 121.949219 113.019531 122.511719 C 113.632812 123.078125 114.570312 123.125 115.117188 122.621094 L 117.566406 120.378906 C 118.117188 119.871094 118.066406 119.015625 117.449219 118.453125 C 116.894531 117.945312 116.089844 117.878906 115.53125 118.242188 C 113.851562 116.515625 114.734375 116.253906 112.519531 114.007812 L 108.367188 110.117188 C 105.378906 107.429688 101.5 107.433594 97.738281 108.5 Z M 97.738281 108.5 " fill-opacity="1" fill-rule="nonzero"/></g></g><path fill="#f1bc53" d="M 117.191406 118.78125 C 117.644531 119.179688 117.734375 119.734375 117.105469 120.261719 L 115.941406 121.265625 C 115.316406 121.800781 113.679688 120.367188 114.300781 119.832031 L 115.46875 118.832031 C 116.09375 118.292969 116.738281 118.386719 117.191406 118.785156 Z M 117.191406 118.78125 " fill-opacity="1" fill-rule="nonzero"/><g clip-path="url(#5c8b8d1923)"><path fill="#f1bc53" d="M 291.019531 112.9375 L 287.121094 116.507812 L 287.871094 118.933594 L 290.515625 119.621094 L 294.414062 116.046875 L 296.179688 117.664062 L 291.695312 123.585938 L 286.414062 122.664062 L 267.867188 140.769531 C 265.023438 143.394531 261.195312 139.460938 263.851562 137.21875 L 283.667969 120.035156 L 282.460938 115.132812 L 289.125 111.195312 Z M 266.625 138.316406 C 266.121094 137.851562 265.300781 137.851562 264.796875 138.316406 C 264.289062 138.777344 264.289062 139.527344 264.796875 139.992188 C 265.300781 140.453125 266.121094 140.453125 266.625 139.992188 C 267.132812 139.527344 267.132812 138.777344 266.625 138.316406 Z M 266.625 138.316406 " fill-opacity="1" fill-rule="nonzero"/><path fill="#f1bc53" d="M 291.019531 112.9375 L 287.121094 116.507812 L 287.871094 118.933594 L 290.515625 119.621094 L 294.414062 116.046875 L 296.179688 117.664062 L 291.695312 123.585938 L 286.414062 122.664062 L 267.867188 140.769531 C 265.023438 143.394531 261.195312 139.460938 263.851562 137.21875 L 283.667969 120.035156 L 282.460938 115.132812 L 289.125 111.195312 Z M 266.625 138.316406 C 266.121094 137.851562 265.300781 137.851562 264.796875 138.316406 C 264.289062 138.777344 264.289062 139.527344 264.796875 139.992188 C 265.300781 140.453125 266.121094 140.453125 266.625 139.992188 C 267.132812 139.527344 267.132812 138.777344 266.625 138.316406 Z M 266.625 138.316406 " fill-opacity="1" fill-rule="nonzero"/><path fill="#f1bc53" d="M 291.019531 112.9375 L 287.121094 116.507812 L 287.871094 118.933594 L 290.515625 119.621094 L 294.414062 116.046875 L 296.179688 117.664062 L 291.695312 123.585938 L 286.414062 122.664062 L 267.867188 140.769531 C 265.023438 143.394531 261.195312 139.460938 263.851562 137.21875 L 283.667969 120.035156 L 282.460938 115.132812 L 289.125 111.195312 Z M 266.625 138.316406 C 266.121094 137.851562 265.300781 137.851562 264.796875 138.316406 C 264.289062 138.777344 264.289062 139.527344 264.796875 139.992188 C 265.300781 140.453125 266.121094 140.453125 266.625 139.992188 C 267.132812 139.527344 267.132812 138.777344 266.625 138.316406 Z M 266.625 138.316406 " fill-opacity="1" fill-rule="nonzero"/></g><g clip-path="url(#6ff8ad5210)"><g clip-path="url(#7f793e22a7)"><path fill="#f1bc53" d="M 291.019531 112.9375 L 287.121094 116.507812 L 287.871094 118.933594 L 290.515625 119.621094 L 294.414062 116.046875 L 296.179688 117.664062 L 291.695312 123.585938 L 286.414062 122.664062 L 267.867188 140.769531 C 265.023438 143.394531 261.195312 139.460938 263.851562 137.21875 L 283.667969 120.035156 L 282.460938 115.132812 L 289.125 111.195312 Z M 266.625 138.316406 C 266.121094 137.851562 265.300781 137.851562 264.796875 138.316406 C 264.289062 138.777344 264.289062 139.527344 264.796875 139.992188 C 265.300781 140.453125 266.121094 140.453125 266.625 139.992188 C 267.132812 139.527344 267.132812 138.777344 266.625 138.316406 Z M 266.625 138.316406 " fill-opacity="1" fill-rule="nonzero"/></g></g><g clip-path="url(#9256a44acd)"><path fill="#f1bc53" d="M 290.445312 112.4375 L 286.398438 116.132812 L 287.398438 119.355469 L 290.695312 120.257812 L 294.777344 116.46875 L 296.203125 117.722656 L 291.929688 123.222656 L 286.242188 122.082031 L 267.433594 140.394531 C 265.175781 142.683594 261.355469 139.65625 264.082031 137.191406 L 284.210938 119.78125 L 283.050781 115.042969 L 289.058594 111.171875 L 290.445312 112.441406 Z M 266.378906 138.183594 C 265.878906 137.722656 264.988281 137.632812 264.484375 138.101562 C 263.972656 138.5625 263.5625 139.378906 264.289062 140.265625 C 264.890625 140.816406 265.851562 140.796875 266.453125 140.199219 C 266.960938 139.734375 266.890625 138.65625 266.378906 138.183594 Z M 266.378906 138.183594 " fill-opacity="1" fill-rule="nonzero"/></g><path fill="#f1bc53" d="M 290.484375 112.445312 L 283.421875 118.972656 L 282.453125 115.144531 L 289.105469 111.171875 Z M 290.484375 112.445312 " fill-opacity="1" fill-rule="nonzero"/><path fill="#f1bc53" d="M 276.480469 126.269531 L 275.085938 127.449219 C 274.972656 128.644531 275.304688 129 277.441406 130.664062 L 280.03125 128.117188 Z M 276.480469 126.269531 " fill-opacity="1" fill-rule="nonzero"/><g clip-path="url(#1889c8927b)"><path fill="#f1bc53" d="M 280.976562 111.5 L 280.746094 111.546875 C 278.085938 110.734375 272.117188 113.929688 273.445312 116.777344 C 273.78125 117.222656 273.726562 118.019531 273.320312 118.519531 L 280.785156 125.367188 C 281.203125 124.984375 282.132812 124.992188 282.5625 125.367188 L 294.90625 136.234375 C 296.035156 137.226562 295.148438 138.066406 294.671875 138.511719 L 292.457031 140.542969 C 291.972656 140.984375 290.695312 141.578125 289.785156 140.695312 L 278.132812 129.433594 C 277.726562 129.042969 277.726562 128.203125 278.132812 127.816406 C 278.132812 127.816406 278.132812 127.808594 278.132812 127.808594 L 270.636719 120.9375 C 269.847656 121.59375 269.097656 121.648438 268.390625 121.472656 C 267.019531 121.128906 266.257812 122.355469 265.4375 123.253906 L 265.808594 123.585938 C 266.355469 124.09375 266.304688 124.949219 265.691406 125.511719 C 265.078125 126.078125 264.140625 126.125 263.59375 125.621094 L 261.144531 123.378906 C 260.59375 122.871094 260.648438 122.015625 261.261719 121.453125 C 261.816406 120.945312 262.621094 120.878906 263.179688 121.242188 C 264.859375 119.515625 263.976562 119.253906 266.191406 117.007812 L 270.34375 113.117188 C 273.332031 110.429688 277.214844 110.433594 280.976562 111.5 Z M 280.976562 111.5 " fill-opacity="1" fill-rule="nonzero"/><path fill="#f1bc53" d="M 280.976562 111.5 L 280.746094 111.546875 C 278.085938 110.734375 272.117188 113.929688 273.445312 116.777344 C 273.78125 117.222656 273.726562 118.019531 273.320312 118.519531 L 280.785156 125.367188 C 281.203125 124.984375 282.132812 124.992188 282.5625 125.367188 L 294.90625 136.234375 C 296.035156 137.226562 295.148438 138.066406 294.671875 138.511719 L 292.457031 140.542969 C 291.972656 140.984375 290.695312 141.578125 289.785156 140.695312 L 278.132812 129.433594 C 277.726562 129.042969 277.726562 128.203125 278.132812 127.816406 C 278.132812 127.816406 278.132812 127.808594 278.132812 127.808594 L 270.636719 120.9375 C 269.847656 121.59375 269.097656 121.648438 268.390625 121.472656 C 267.019531 121.128906 266.257812 122.355469 265.4375 123.253906 L 265.808594 123.585938 C 266.355469 124.09375 266.304688 124.949219 265.691406 125.511719 C 265.078125 126.078125 264.140625 126.125 263.59375 125.621094 L 261.144531 123.378906 C 260.59375 122.871094 260.648438 122.015625 261.261719 121.453125 C 261.816406 120.945312 262.621094 120.878906 263.179688 121.242188 C 264.859375 119.515625 263.976562 119.253906 266.191406 117.007812 L 270.34375 113.117188 C 273.332031 110.429688 277.214844 110.433594 280.976562 111.5 Z M 280.976562 111.5 " fill-opacity="1" fill-rule="nonzero"/></g><path fill="#f1bc53" d="M 272.8125 118.054688 L 281.675781 126.179688 L 279.019531 128.617188 L 270.15625 120.492188 Z M 272.8125 118.054688 " fill-opacity="1" fill-rule="nonzero"/><path fill="#f1bc53" d="M 271.003906 119.714844 L 279.867188 127.835938 L 279.019531 128.617188 L 270.15625 120.496094 Z M 271.003906 119.714844 " fill-opacity="1" fill-rule="nonzero"/><path fill="#f1bc53" d="M 271.75 118.410156 L 280.574219 126.503906 L 279.433594 127.550781 L 270.832031 119.25 Z M 271.75 118.410156 " fill-opacity="1" fill-rule="nonzero"/><g clip-path="url(#1f011dd476)"><path fill="#f1bc53" d="M 280.972656 111.5 L 280.746094 111.546875 C 278.085938 110.734375 272.113281 113.929688 273.445312 116.777344 C 273.78125 117.226562 273.726562 118.019531 273.320312 118.519531 L 270.636719 120.9375 C 269.847656 121.59375 269.101562 121.648438 268.390625 121.472656 C 267.019531 121.132812 266.257812 122.355469 265.4375 123.253906 L 265.808594 123.589844 C 266.355469 124.097656 266.304688 124.953125 265.691406 125.515625 C 265.078125 126.078125 264.140625 126.125 263.59375 125.621094 L 261.144531 123.378906 C 260.59375 122.871094 260.648438 122.015625 261.261719 121.457031 C 261.816406 120.945312 262.621094 120.878906 263.179688 121.242188 C 264.859375 119.515625 263.976562 119.253906 266.191406 117.007812 L 270.34375 113.117188 C 273.332031 110.429688 277.214844 110.433594 280.972656 111.5 Z M 280.972656 111.5 " fill-opacity="1" fill-rule="nonzero"/></g><g clip-path="url(#d607f7182d)"><path fill="#f1bc53" d="M 263.179688 121.242188 C 264.859375 119.515625 263.980469 119.253906 266.195312 117.003906 L 270.34375 113.117188 C 272.054688 111.578125 274.0625 110.921875 276.167969 110.839844 L 263.792969 122.296875 L 262.898438 121.546875 L 263.183594 121.242188 Z M 263.179688 121.242188 " fill-opacity="1" fill-rule="nonzero"/></g><path fill="#f1bc53" d="M 273.253906 115.917969 C 273.242188 116.191406 273.308594 116.46875 273.453125 116.777344 C 273.78125 117.222656 273.726562 118.019531 273.320312 118.519531 L 270.636719 120.9375 C 269.847656 121.59375 269.101562 121.648438 268.390625 121.472656 C 268.066406 121.378906 267.769531 121.398438 267.492188 121.472656 C 266.648438 121.683594 273.257812 115.800781 273.253906 115.890625 Z M 273.253906 115.917969 " fill-opacity="1" fill-rule="nonzero"/><path fill="#f1bc53" d="M 280.785156 125.367188 C 281.203125 124.984375 282.132812 124.992188 282.5625 125.367188 L 294.90625 136.234375 C 296.03125 137.226562 295.152344 138.066406 294.671875 138.511719 L 292.457031 140.542969 C 291.972656 140.984375 290.695312 141.578125 289.785156 140.695312 L 278.132812 129.433594 C 277.726562 129.042969 277.722656 128.203125 278.132812 127.816406 C 278.132812 127.816406 278.128906 127.808594 278.132812 127.808594 Z M 280.785156 125.367188 " fill-opacity="1" fill-rule="nonzero"/><path fill="#f1bc53" d="M 294.675781 138.507812 L 292.460938 140.542969 C 291.976562 140.984375 290.738281 141.617188 289.828125 140.738281 L 278.132812 129.433594 C 277.726562 129.039062 277.714844 128.191406 278.132812 127.808594 L 280.789062 125.371094 Z M 294.675781 138.507812 " fill-opacity="1" fill-rule="nonzero"/><path fill="#f1bc53" d="M 282.359375 126.320312 L 294.058594 136.816406 C 294.546875 137.246094 294.382812 137.851562 294.03125 138.167969 L 292.785156 139.261719 L 280.035156 127.230469 L 281.214844 126.214844 C 281.46875 125.996094 282.058594 126.058594 282.359375 126.320312 Z M 282.359375 126.320312 " fill-opacity="1" fill-rule="nonzero"/><g clip-path="url(#9f693176dc)"><g clip-path="url(#d589264444)"><path fill="#f1bc53" d="M 280.976562 111.5 L 280.746094 111.546875 C 278.085938 110.734375 272.117188 113.929688 273.445312 116.777344 C 273.78125 117.222656 273.726562 118.019531 273.320312 118.519531 L 280.785156 125.367188 C 281.203125 124.984375 282.132812 124.992188 282.5625 125.367188 L 294.90625 136.234375 C 296.035156 137.226562 295.148438 138.066406 294.671875 138.511719 L 292.457031 140.542969 C 291.972656 140.984375 290.695312 141.578125 289.785156 140.695312 L 278.132812 129.433594 C 277.726562 129.042969 277.726562 128.203125 278.132812 127.816406 C 278.132812 127.816406 278.132812 127.808594 278.132812 127.808594 L 270.636719 120.9375 C 269.847656 121.59375 269.097656 121.648438 268.390625 121.472656 C 267.019531 121.128906 266.257812 122.355469 265.4375 123.253906 L 265.808594 123.585938 C 266.355469 124.09375 266.304688 124.949219 265.691406 125.511719 C 265.078125 126.078125 264.140625 126.125 263.59375 125.621094 L 261.144531 123.378906 C 260.59375 122.871094 260.648438 122.015625 261.261719 121.453125 C 261.816406 120.945312 262.621094 120.878906 263.179688 121.242188 C 264.859375 119.515625 263.976562 119.253906 266.191406 117.007812 L 270.34375 113.117188 C 273.332031 110.429688 277.214844 110.433594 280.976562 111.5 Z M 280.976562 111.5 " fill-opacity="1" fill-rule="nonzero"/></g></g><path fill="#f1bc53" d="M 261.519531 121.78125 C 261.066406 122.179688 260.976562 122.734375 261.605469 123.261719 L 262.769531 124.265625 C 263.394531 124.800781 265.03125 123.367188 264.410156 122.832031 L 263.242188 121.832031 C 262.617188 121.292969 261.972656 121.386719 261.519531 121.785156 Z M 261.519531 121.78125 " fill-opacity="1" fill-rule="nonzero"/><g fill="#ffffff" fill-opacity="1"><g transform="translate(208.175733, 185.805223)"><g><path d="M 3.84375 0.109375 C 3.539062 0.109375 3.269531 0.046875 3.03125 -0.078125 C 2.800781 -0.210938 2.640625 -0.4375 2.546875 -0.75 L 2.4375 -0.75 L 2.375 0 L 0.515625 0 L 0.515625 -9.65625 L 2.453125 -9.65625 L 2.453125 -5.9375 L 2.5625 -5.9375 C 2.675781 -6.21875 2.835938 -6.421875 3.046875 -6.546875 C 3.265625 -6.671875 3.535156 -6.734375 3.859375 -6.734375 C 4.273438 -6.734375 4.597656 -6.625 4.828125 -6.40625 C 5.054688 -6.195312 5.21875 -5.847656 5.3125 -5.359375 C 5.40625 -4.878906 5.453125 -4.195312 5.453125 -3.3125 C 5.453125 -2.40625 5.398438 -1.707031 5.296875 -1.21875 C 5.191406 -0.726562 5.023438 -0.382812 4.796875 -0.1875 C 4.566406 0.0078125 4.25 0.109375 3.84375 0.109375 Z M 2.984375 -1.59375 C 3.179688 -1.59375 3.3125 -1.617188 3.375 -1.671875 C 3.4375 -1.722656 3.476562 -1.859375 3.5 -2.078125 C 3.519531 -2.304688 3.53125 -2.71875 3.53125 -3.3125 C 3.53125 -3.914062 3.519531 -4.328125 3.5 -4.546875 C 3.476562 -4.765625 3.4375 -4.898438 3.375 -4.953125 C 3.3125 -5.015625 3.179688 -5.046875 2.984375 -5.046875 C 2.847656 -5.046875 2.75 -5.023438 2.6875 -4.984375 C 2.625 -4.941406 2.570312 -4.863281 2.53125 -4.75 C 2.476562 -4.570312 2.453125 -4.09375 2.453125 -3.3125 C 2.453125 -2.988281 2.457031 -2.703125 2.46875 -2.453125 C 2.476562 -2.210938 2.492188 -2.035156 2.515625 -1.921875 C 2.554688 -1.785156 2.609375 -1.695312 2.671875 -1.65625 C 2.734375 -1.613281 2.835938 -1.59375 2.984375 -1.59375 Z M 2.984375 -1.59375 "/></g></g></g><g fill="#ffffff" fill-opacity="1"><g transform="translate(214.933952, 185.805223)"><g><path d="M 2.796875 2.671875 C 2.453125 2.671875 2.101562 2.65625 1.75 2.625 C 1.394531 2.601562 1.109375 2.566406 0.890625 2.515625 L 0.890625 1.078125 C 1.222656 1.085938 1.703125 1.09375 2.328125 1.09375 C 2.710938 1.09375 2.972656 1.066406 3.109375 1.015625 C 3.253906 0.960938 3.34375 0.851562 3.375 0.6875 C 3.414062 0.519531 3.4375 0.207031 3.4375 -0.25 L 3.4375 -0.90625 L 3.328125 -0.90625 C 3.097656 -0.332031 2.640625 -0.046875 1.953125 -0.046875 C 1.535156 -0.046875 1.222656 -0.128906 1.015625 -0.296875 C 0.804688 -0.472656 0.664062 -0.726562 0.59375 -1.0625 C 0.53125 -1.394531 0.5 -1.863281 0.5 -2.46875 L 0.5 -6.625 L 2.4375 -6.625 L 2.4375 -3.21875 C 2.4375 -2.707031 2.445312 -2.359375 2.46875 -2.171875 C 2.488281 -1.984375 2.523438 -1.863281 2.578125 -1.8125 C 2.640625 -1.757812 2.753906 -1.734375 2.921875 -1.734375 C 3.097656 -1.734375 3.21875 -1.769531 3.28125 -1.84375 C 3.34375 -1.914062 3.382812 -2.054688 3.40625 -2.265625 C 3.425781 -2.472656 3.4375 -2.863281 3.4375 -3.4375 L 3.4375 -6.625 L 5.375 -6.625 L 5.375 -0.734375 C 5.375 0.148438 5.320312 0.816406 5.21875 1.265625 C 5.125 1.710938 4.894531 2.054688 4.53125 2.296875 C 4.164062 2.546875 3.585938 2.671875 2.796875 2.671875 Z M 2.796875 2.671875 "/></g></g></g><g fill="#ffffff" fill-opacity="1"><g transform="translate(221.731161, 185.805223)"><g/></g></g><g fill="#ffffff" fill-opacity="1"><g transform="translate(224.954461, 185.805223)"><g><path d="M 3.28125 -3.59375 L 3.28125 -5.296875 L 5.84375 -5.296875 L 5.84375 -0.1875 C 5.53125 -0.09375 5.144531 -0.0195312 4.6875 0.03125 C 4.226562 0.0820312 3.804688 0.109375 3.421875 0.109375 C 2.578125 0.109375 1.945312 -0.015625 1.53125 -0.265625 C 1.125 -0.523438 0.835938 -0.96875 0.671875 -1.59375 C 0.515625 -2.226562 0.4375 -3.1875 0.4375 -4.46875 C 0.4375 -5.738281 0.519531 -6.691406 0.6875 -7.328125 C 0.863281 -7.960938 1.164062 -8.40625 1.59375 -8.65625 C 2.03125 -8.914062 2.6875 -9.046875 3.5625 -9.046875 C 3.9375 -9.046875 4.335938 -9.019531 4.765625 -8.96875 C 5.203125 -8.914062 5.550781 -8.851562 5.8125 -8.78125 L 5.8125 -7.140625 C 5.53125 -7.171875 5.226562 -7.195312 4.90625 -7.21875 C 4.582031 -7.25 4.335938 -7.265625 4.171875 -7.265625 C 3.597656 -7.265625 3.210938 -7.21875 3.015625 -7.125 C 2.816406 -7.039062 2.679688 -6.816406 2.609375 -6.453125 C 2.546875 -6.097656 2.515625 -5.4375 2.515625 -4.46875 C 2.515625 -3.5625 2.53125 -2.921875 2.5625 -2.546875 C 2.601562 -2.171875 2.6875 -1.921875 2.8125 -1.796875 C 2.945312 -1.671875 3.171875 -1.609375 3.484375 -1.609375 C 3.628906 -1.609375 3.789062 -1.617188 3.96875 -1.640625 L 3.96875 -3.59375 Z M 3.28125 -3.59375 "/></g></g></g><g fill="#ffffff" fill-opacity="1"><g transform="translate(232.232528, 185.805223)"><g><path d="M 4.84375 -0.125 C 4.65625 -0.0625 4.410156 -0.0078125 4.109375 0.03125 C 3.804688 0.0820312 3.523438 0.109375 3.265625 0.109375 C 2.421875 0.109375 1.800781 -0.03125 1.40625 -0.3125 C 1.007812 -0.59375 0.75 -1.039062 0.625 -1.65625 C 0.5 -2.28125 0.4375 -3.21875 0.4375 -4.46875 C 0.4375 -5.707031 0.5 -6.640625 0.625 -7.265625 C 0.757812 -7.890625 1.023438 -8.34375 1.421875 -8.625 C 1.828125 -8.90625 2.441406 -9.046875 3.265625 -9.046875 C 3.554688 -9.046875 3.847656 -9.023438 4.140625 -8.984375 C 4.429688 -8.941406 4.660156 -8.890625 4.828125 -8.828125 L 4.828125 -7.1875 C 4.347656 -7.238281 3.960938 -7.265625 3.671875 -7.265625 C 3.273438 -7.265625 3.003906 -7.207031 2.859375 -7.09375 C 2.722656 -6.988281 2.632812 -6.765625 2.59375 -6.421875 C 2.550781 -6.085938 2.53125 -5.4375 2.53125 -4.46875 C 2.53125 -3.507812 2.550781 -2.859375 2.59375 -2.515625 C 2.632812 -2.171875 2.722656 -1.941406 2.859375 -1.828125 C 3.003906 -1.722656 3.273438 -1.671875 3.671875 -1.671875 C 4.140625 -1.671875 4.53125 -1.695312 4.84375 -1.75 Z M 4.84375 -0.125 "/></g></g></g></svg>